<?xml version="1.0" encoding="iso-8859-1"?>
<!-- Generator: Adobe Illustrator 20.1.0, SVG Export Plug-In . SVG Version: 6.00 Build 0)  -->
<svg version="1.1" id="Layer_1_1_" xmlns="http://www.w3.org/2000/svg" xmlns:xlink="http://www.w3.org/1999/xlink" x="0px" y="0px"
	 viewBox="0 0 64 64" style="enable-background:new 0 0 64 64;" xml:space="preserve">
<g>
</g>
<circle style="fill:#ABD4D8;" cx="56" cy="56" r="4"/>
<circle style="fill:#ABD4D8;" cx="56" cy="42" r="4"/>
<circle style="fill:#ABD4D8;" cx="8" cy="8" r="4"/>
<path style="fill:#203C51;" d="M8,14c3.309,0,6-2.691,6-6s-2.691-6-6-6C4.692,2,2,4.691,2,8S4.692,14,8,14z M8,4
	c2.206,0,4,1.794,4,4s-1.794,4-4,4c-2.206,0-4-1.794-4-4S5.795,4,8,4z"/>
<path style="fill:#203C51;" d="M56,36c-3.309,0-6,2.691-6,6s2.691,6,6,6c3.309,0,6-2.691,6-6S59.309,36,56,36z M56,46
	c-2.206,0-4-1.794-4-4s1.794-4,4-4c2.206,0,4,1.794,4,4S58.206,46,56,46z"/>
<path style="fill:#203C51;" d="M56,50c-3.309,0-6,2.691-6,6s2.691,6,6,6c3.309,0,6-2.691,6-6S59.309,50,56,50z M56,60
	c-2.206,0-4-1.794-4-4s1.794-4,4-4c2.206,0,4,1.794,4,4S58.206,60,56,60z"/>
<path style="fill:#203C51;" d="M32.293,10.293l1.414,1.414l3-3c0.391-0.391,0.391-1.023,0-1.414l-3-3l-1.414,1.414L33.586,7H16v2
	h17.586L32.293,10.293z"/>
<path style="fill:#203C51;" d="M60,16.5c0,4.136-3.364,7.5-7.5,7.5h-2.086l1.293-1.293l-1.414-1.414l-3,3
	c-0.391,0.391-0.391,1.023,0,1.414l3,3l1.414-1.414L50.414,26H52.5c5.238,0,9.5-4.262,9.5-9.5S57.738,7,52.5,7H39v2h13.5
	C56.636,9,60,12.364,60,16.5z"/>
<path style="fill:#203C51;" d="M44.707,38.293l-1.414,1.414L44.586,41H32v2h12.586l-1.293,1.293l1.414,1.414l3-3
	c0.391-0.391,0.391-1.023,0-1.414L44.707,38.293z"/>
<path style="fill:#203C51;" d="M44.707,52.293l-1.414,1.414L44.586,55H28c-3.309,0-6-2.691-6-6c0-2.39-1.059-4.533-2.726-6h7.312
	l-1.293,1.293l1.414,1.414l3-3c0.391-0.391,0.391-1.023,0-1.414l-3-3l-1.414,1.414L26.586,41H14h-1h-1.5C7.364,41,4,37.636,4,33.5
	S7.364,26,11.5,26H22v-2H11.5C6.262,24,2,28.262,2,33.5S6.262,43,11.5,43H13h1c3.309,0,6,2.691,6,6c0,4.411,3.589,8,8,8h16.586
	l-1.293,1.293l1.414,1.414l3-3c0.391-0.391,0.391-1.023,0-1.414L44.707,52.293z"/>
<path style="fill:#203C51;" d="M45,24H27.414l1.293-1.293l-1.414-1.414l-3,3c-0.391,0.391-0.391,1.023,0,1.414l3,3l1.414-1.414
	L27.414,26H45V24z"/>
<rect x="15" y="50" style="fill:#203C51;" width="2" height="2"/>
<rect x="11" y="50" style="fill:#203C51;" width="2" height="2"/>
<rect x="7" y="50" style="fill:#203C51;" width="2" height="2"/>
</svg>
